<svg width="388" height="27" viewBox="0 0 388 27" fill="none" xmlns="http://www.w3.org/2000/svg">
<path d="M66.584 16.288C66.4133 17.9307 65.816 19.3707 64.792 20.608C63.768 21.8453 62.4347 22.8053 60.792 23.488C59.1707 24.1707 57.3467 24.512 55.32 24.512C53.08 24.512 51.1067 24.1067 49.4 23.296C47.6933 22.4853 46.36 21.3547 45.4 19.904C44.44 18.4533 43.96 16.7787 43.96 14.88C43.96 12.96 44.44 11.2747 45.4 9.824C46.36 8.37333 47.6933 7.24267 49.4 6.432C51.1067 5.6 53.08 5.184 55.32 5.184C57.3467 5.184 59.1707 5.536 60.792 6.24C62.4347 6.92267 63.768 7.88267 64.792 9.12C65.816 10.336 66.4133 11.776 66.584 13.44H60.088C59.8533 12.352 59.3093 11.52 58.456 10.944C57.6027 10.3467 56.5573 10.048 55.32 10.048C54.36 10.048 53.5173 10.24 52.792 10.624C52.088 10.9867 51.5333 11.5307 51.128 12.256C50.744 12.96 50.552 13.8347 50.552 14.88C50.552 15.904 50.744 16.7787 51.128 17.504C51.5333 18.208 52.088 18.752 52.792 19.136C53.5173 19.4987 54.36 19.68 55.32 19.68C56.5573 19.68 57.6027 19.3707 58.456 18.752C59.3307 18.1333 59.8747 17.312 60.088 16.288H66.584ZM69.167 24V5.728H75.631V20.448L74.223 20L83.791 5.728H92.175V24H85.743V8.864L87.151 9.344L77.327 24H69.167ZM117.584 16.288C117.413 17.9307 116.816 19.3707 115.792 20.608C114.768 21.8453 113.435 22.8053 111.792 23.488C110.171 24.1707 108.347 24.512 106.32 24.512C104.08 24.512 102.107 24.1067 100.4 23.296C98.6933 22.4853 97.36 21.3547 96.4 19.904C95.44 18.4533 94.96 16.7787 94.96 14.88C94.96 12.96 95.44 11.2747 96.4 9.824C97.36 8.37333 98.6933 7.24267 100.4 6.432C102.107 5.6 104.08 5.184 106.32 5.184C108.347 5.184 110.171 5.536 111.792 6.24C113.435 6.92267 114.768 7.88267 115.792 9.12C116.816 10.336 117.413 11.776 117.584 13.44H111.088C110.853 12.352 110.309 11.52 109.456 10.944C108.603 10.3467 107.557 10.048 106.32 10.048C105.36 10.048 104.517 10.24 103.792 10.624C103.088 10.9867 102.533 11.5307 102.128 12.256C101.744 12.96 101.552 13.8347 101.552 14.88C101.552 15.904 101.744 16.7787 102.128 17.504C102.533 18.208 103.088 18.752 103.792 19.136C104.517 19.4987 105.36 19.68 106.32 19.68C107.557 19.68 108.603 19.3707 109.456 18.752C110.331 18.1333 110.875 17.312 111.088 16.288H117.584ZM125.205 7.968H131.765V24H125.205V7.968ZM118.261 5.728H138.709V10.656H118.261V5.728ZM151.075 24.512C148.856 24.512 146.872 24.1067 145.123 23.296C143.395 22.4853 142.029 21.3547 141.027 19.904C140.024 18.432 139.523 16.7253 139.523 14.784C139.523 12.8853 140.003 11.2213 140.963 9.792C141.923 8.34133 143.235 7.21067 144.899 6.4C146.584 5.58933 148.483 5.184 150.595 5.184C152.792 5.184 154.659 5.664 156.194 6.624C157.752 7.56267 158.947 8.896 159.779 10.624C160.632 12.352 161.059 14.3893 161.059 16.736H144.803V12.8H157.378L155.235 14.176C155.149 13.2373 154.915 12.448 154.531 11.808C154.147 11.1467 153.635 10.6453 152.995 10.304C152.376 9.96267 151.629 9.792 150.755 9.792C149.795 9.792 148.973 9.984 148.291 10.368C147.608 10.752 147.075 11.2853 146.691 11.968C146.307 12.6293 146.115 13.408 146.115 14.304C146.115 15.456 146.371 16.4373 146.883 17.248C147.416 18.0373 148.184 18.6453 149.187 19.072C150.211 19.4987 151.459 19.712 152.931 19.712C154.275 19.712 155.608 19.5413 156.931 19.2C158.275 18.8373 159.491 18.336 160.579 17.696V21.856C159.32 22.7093 157.88 23.3707 156.259 23.84C154.659 24.288 152.931 24.512 151.075 24.512ZM163.855 24V5.728H173.679L179.343 20.448H177.519L183.087 5.728H192.911V24H186.799V8.192H187.855L181.391 24H175.407L168.943 8.256L169.999 8.192V24H163.855ZM207.422 24.512C205.075 24.512 203.027 24.1173 201.278 23.328C199.529 22.5173 198.163 21.3867 197.182 19.936C196.201 18.464 195.71 16.7787 195.71 14.88C195.71 12.9387 196.201 11.2427 197.182 9.792C198.163 8.34133 199.529 7.21067 201.278 6.4C203.027 5.58933 205.075 5.184 207.422 5.184C209.747 5.184 211.785 5.58933 213.534 6.4C215.305 7.21067 216.681 8.34133 217.662 9.792C218.643 11.2427 219.134 12.9387 219.134 14.88C219.134 16.7787 218.643 18.464 217.662 19.936C216.681 21.3867 215.305 22.5173 213.534 23.328C211.785 24.1173 209.747 24.512 207.422 24.512ZM207.422 19.68C208.489 19.68 209.395 19.488 210.142 19.104C210.91 18.72 211.497 18.1653 211.902 17.44C212.307 16.7147 212.51 15.8613 212.51 14.88C212.51 13.856 212.307 12.992 211.902 12.288C211.497 11.5627 210.91 11.008 210.142 10.624C209.395 10.24 208.489 10.048 207.422 10.048C206.355 10.048 205.438 10.24 204.67 10.624C203.902 11.008 203.315 11.5627 202.91 12.288C202.505 12.992 202.302 13.8453 202.302 14.848C202.302 15.8507 202.505 16.7147 202.91 17.44C203.315 18.1653 203.902 18.72 204.67 19.104C205.438 19.488 206.355 19.68 207.422 19.68ZM226.892 7.968H233.452V24H226.892V7.968ZM219.948 5.728H240.396V10.656H219.948V5.728ZM252.762 24.512C250.543 24.512 248.559 24.1067 246.81 23.296C245.082 22.4853 243.717 21.3547 242.714 19.904C241.711 18.432 241.21 16.7253 241.21 14.784C241.21 12.8853 241.69 11.2213 242.65 9.792C243.61 8.34133 244.922 7.21067 246.586 6.4C248.271 5.58933 250.17 5.184 252.282 5.184C254.479 5.184 256.346 5.664 257.882 6.624C259.439 7.56267 260.634 8.896 261.466 10.624C262.319 12.352 262.746 14.3893 262.746 16.736H246.49V12.8H259.066L256.922 14.176C256.837 13.2373 256.602 12.448 256.218 11.808C255.834 11.1467 255.322 10.6453 254.682 10.304C254.063 9.96267 253.317 9.792 252.442 9.792C251.482 9.792 250.661 9.984 249.978 10.368C249.295 10.752 248.762 11.2853 248.378 11.968C247.994 12.6293 247.802 13.408 247.802 14.304C247.802 15.456 248.058 16.4373 248.57 17.248C249.103 18.0373 249.871 18.6453 250.874 19.072C251.898 19.4987 253.146 19.712 254.618 19.712C255.962 19.712 257.295 19.5413 258.618 19.2C259.962 18.8373 261.178 18.336 262.266 17.696V21.856C261.007 22.7093 259.567 23.3707 257.946 23.84C256.346 24.288 254.618 24.512 252.762 24.512ZM262.616 24L271.096 13.76L271.064 15.68L263.096 5.728H270.36L275.512 12.032H273.592L278.744 5.728H285.912L277.656 15.744L277.336 13.152L286.424 24H279L273.4 17.248H275.448L269.912 24H262.616ZM287.792 5.728H294.32V24H287.792V5.728ZM302.96 5.728H309.488V24H302.96V5.728ZM291.568 12.224H305.424V17.088H291.568V12.224ZM313.073 24V5.728H319.537V20.448L318.129 20L327.697 5.728H336.081V24H329.649V8.864L331.057 9.344L321.233 24H313.073ZM339.698 24V5.728H346.258V18.912L344.338 18.24L354.514 5.728H361.426L345.522 24H339.698ZM354.578 24L349.362 15.072L354.29 11.616L361.938 24H354.578ZM378.992 24L378.16 17.408L379.024 14.88L378.16 12.352L378.992 5.728H385.776L384.624 14.848L385.776 24H378.992ZM380.528 14.88C380.229 16.8 379.632 18.4853 378.736 19.936C377.861 21.3867 376.741 22.5173 375.376 23.328C374.032 24.1173 372.496 24.512 370.768 24.512C368.976 24.512 367.397 24.1173 366.032 23.328C364.688 22.5173 363.632 21.3867 362.864 19.936C362.096 18.464 361.712 16.7787 361.712 14.88C361.712 12.9387 362.096 11.2427 362.864 9.792C363.632 8.34133 364.688 7.21067 366.032 6.4C367.397 5.58933 368.976 5.184 370.768 5.184C372.496 5.184 374.032 5.58933 375.376 6.4C376.741 7.18933 377.872 8.30933 378.767 9.76C379.664 11.1893 380.25 12.896 380.528 14.88ZM368.336 14.88C368.336 15.776 368.517 16.576 368.88 17.28C369.264 17.984 369.786 18.5387 370.448 18.944C371.109 19.328 371.866 19.52 372.72 19.52C373.616 19.52 374.458 19.328 375.248 18.944C376.037 18.5387 376.73 17.984 377.328 17.28C377.925 16.576 378.373 15.776 378.672 14.88C378.373 13.9627 377.925 13.152 377.328 12.448C376.73 11.744 376.037 11.1893 375.248 10.784C374.458 10.3787 373.616 10.176 372.72 10.176C371.866 10.176 371.109 10.3787 370.448 10.784C369.786 11.1893 369.264 11.744 368.88 12.448C368.517 13.152 368.336 13.9627 368.336 14.88Z" fill="white"/>
<path d="M5.77513 12.3105V7.78591H26.2249V12.3105H32V2H0V12.3105H5.77513Z" fill="white"/>
<path d="M26.2249 15.7941V20.5993H5.77513V15.7941H0V26.3852H32V15.7941H26.2249Z" fill="white"/>
</svg>
